<?xml version="1.0" encoding="utf-8"?>
<!-- Generator: Adobe Illustrator 27.5.0, SVG Export Plug-In . SVG Version: 6.00 Build 0)  -->
<svg version="1.1" xmlns="http://www.w3.org/2000/svg" xmlns:xlink="http://www.w3.org/1999/xlink" x="0px" y="0px"
	 viewBox="0 0 500 500" style="enable-background:new 0 0 500 500;" xml:space="preserve">
<g id="BACKGROUND">
	<rect style="fill:#FFFFFF;" width="500" height="500"/>
</g>
<g id="OBJECTS">
	<g>
		<path style="fill:#2B2353;" d="M323.391,123.217l-6.667,6.867l-29.351,30.206l-1.919-5.366c-0.755-2.119-2.756-3.529-5.003-3.529
			h-60.904c-2.247,0-4.247,1.41-5.003,3.529l-1.919,5.366l-29.351-30.206l-6.667-6.867c0,0,15.463,0.846,26.696-5.085
			c6.594-3.481,12.602-12.438,16.439-19.242c1.587-2.815,5.766-2.43,6.771,0.641c3.389,10.353,10.602,25.792,23.486,25.804
			c12.885-0.012,20.099-15.455,23.487-25.807c1.005-3.071,5.183-3.456,6.771-0.642c3.839,6.805,9.849,15.764,16.439,19.246
			C307.929,124.063,323.391,123.217,323.391,123.217z"/>
		<path style="fill:#1F9EF3;" d="M316.724,130.084l-29.351,30.206l-1.919-5.366c-0.755-2.119-2.756-3.529-5.003-3.529h-60.904
			c-2.247,0-4.247,1.41-5.003,3.529l-1.919,5.366l-29.351-30.206c5.521-0.364,13.489-1.528,20.029-4.975
			c8.295-4.379,15.167-17.424,18.194-23.948c0.563-1.214,2.33-1.077,2.7,0.21c2.641,9.18,10.511,30.928,25.802,30.942
			c15.293-0.014,23.163-21.765,25.803-30.944c0.37-1.286,2.137-1.424,2.7-0.21c3.029,6.523,9.904,19.57,18.194,23.95
			C303.235,128.556,311.203,129.72,316.724,130.084z"/>
		<path style="fill:#1F9EF3;" d="M266.529,103.123c0-8.789-33.057-8.789-33.057,0c0,8.789,7.4,18.337,16.529,18.337
			C259.129,121.461,266.529,111.912,266.529,103.123z"/>
		<path style="fill:#2B2353;" d="M246.921,178.694c0,0-5.845,4.501-11.869,3.424c-6.024-1.077-9.946-7.325-9.946-7.325
			s5.845-4.501,11.869-3.424C242.998,172.446,246.921,178.694,246.921,178.694z"/>
		<path style="fill:#1F9EF3;" d="M277.439,172.765l-23.385-10.158c0,0-6.273,17.557,7.886,20.352
			C273.824,185.306,277.439,172.765,277.439,172.765z"/>
		<polygon style="fill:#1F9EF3;" points="279.159,178.441 222.781,151.396 232.348,151.396 278.184,172.93 		"/>
		<rect x="229.496" y="206.882" style="fill:#2B2353;" width="40.416" height="4.234"/>
		<path style="fill:#2B2353;" d="M223.741,166.635l22.739,9.646l2.736-5.847C249.215,170.434,238.947,161.76,223.741,166.635z"/>
		<g>
			<path style="fill:#2B2353;" d="M245.179,187.31c0,0-2.851,1.77-1.966,4.62C240.362,190.259,241.64,186.72,245.179,187.31z"/>
			<path style="fill:#2B2353;" d="M254.821,187.31c0,0,2.851,1.77,1.966,4.62C259.638,190.259,258.36,186.72,254.821,187.31z"/>
		</g>
		<path style="fill:#2B2353;" d="M277.572,157.328L277.572,157.328l3.602,21.751l-10.099,13.559l6.215,0.283l-5.085,7.91
			l-16.667-7.345l-0.98,0.55c-2.831,1.588-6.284,1.588-9.115,0l-0.98-0.55l-16.667,7.345l-5.085-7.91l6.215-0.283l-10.099-13.559
			l3.602-21.751l0,0c-2.175,0-4.131,1.325-4.939,3.345l-29.837,74.665l22.217,4.32l7.868,25.016l20.227-10.452L250,269.193
			l12.035-14.972l20.227,10.452l7.869-25.016l22.217-4.32l-29.837-74.665C281.703,158.653,279.747,157.328,277.572,157.328z
			 M264.295,230.21l-10.17-10.169L250,221.735l-4.125-1.695l-10.17,10.169l-7.345-6.78l8.633-16.102l13.007-3.99l13.007,3.99
			l8.633,16.102L264.295,230.21z"/>
		<path style="fill:#2B2353;" d="M250.305,259.537c-10.339,6.84-10.339,17.929,0,24.769
			C260.644,277.466,260.644,266.377,250.305,259.537z"/>
		<g>
			<path style="fill:#2B2353;" d="M220.969,256.165c-12.22,2.09-16.691,12.238-9.987,22.667
				C223.202,276.742,227.673,266.594,220.969,256.165z"/>
			<path style="fill:#2B2353;" d="M194.729,232.256c-11.639-4.268-20.568,2.309-19.942,14.691
				C186.426,251.214,195.355,244.637,194.729,232.256z"/>
			<path style="fill:#2B2353;" d="M279.031,256.165c12.22,2.09,16.691,12.238,9.987,22.667
				C276.798,276.742,272.327,266.594,279.031,256.165z"/>
			<path style="fill:#2B2353;" d="M305.271,232.256c11.639-4.268,20.568,2.309,19.942,14.691
				C313.574,251.214,304.646,244.637,305.271,232.256z"/>
		</g>
	</g>
	<g>
		<g>
			<path style="fill:#2B2353;" d="M166.671,375.495h-50.986c-3.15,0-5.703-2.554-5.703-5.703l0,0h56.69V375.495z"/>
			<path style="fill:#2B2353;" d="M157.472,364.606L157.472,364.606c-1.59,0-2.879,1.289-2.879,2.879v10.316
				c0,1.59,1.289,2.879,2.879,2.879l0,0c1.59,0,2.879-1.289,2.879-2.879v-10.316C160.35,365.895,159.061,364.606,157.472,364.606z"
				/>
			<path style="fill:#2B2353;" d="M168.645,368.432c-2.325,0-4.211,1.885-4.211,4.211c0,2.326,1.885,4.211,4.211,4.211
				s4.211-1.885,4.211-4.211C172.856,370.317,170.971,368.432,168.645,368.432z M168.645,374.617c-1.091,0-1.974-0.884-1.974-1.974
				c0-1.091,0.884-1.974,1.974-1.974c1.09,0,1.974,0.884,1.974,1.974C170.62,373.733,169.736,374.617,168.645,374.617z"/>
		</g>
		<g>
			<path style="fill:#2B2353;" d="M333.329,375.495h50.986c3.15,0,5.703-2.554,5.703-5.703l0,0h-56.689V375.495z"/>
			<path style="fill:#2B2353;" d="M342.528,364.606L342.528,364.606c1.59,0,2.879,1.289,2.879,2.879v10.316
				c0,1.59-1.289,2.879-2.879,2.879l0,0c-1.59,0-2.879-1.289-2.879-2.879v-10.316C339.65,365.895,340.939,364.606,342.528,364.606z"
				/>
			<path style="fill:#2B2353;" d="M327.144,372.643c0,2.326,1.885,4.211,4.211,4.211c2.325,0,4.211-1.885,4.211-4.211
				c0-2.326-1.885-4.211-4.211-4.211C329.029,368.432,327.144,370.317,327.144,372.643z M329.38,372.643
				c0-1.091,0.884-1.974,1.974-1.974c1.091,0,1.974,0.884,1.974,1.974c0,1.09-0.884,1.974-1.974,1.974
				C330.264,374.617,329.38,373.733,329.38,372.643z"/>
		</g>
	</g>
</g>
<g id="TEXTS">
	<g>
		
			<text transform="matrix(1 0 0 1 141.1849 344.7008)" style="fill:#2B2353; font-family:'Montserrat-ExtraBold'; font-size:63.9529px;">pirates</text>
	</g>
	<g>
		
			<text transform="matrix(1 0 0 1 189.4152 381.6797)" style="fill:#1F9EF3; font-family:'Montserrat-Light'; font-size:24.0716px; letter-spacing:5;">captain</text>
	</g>
</g>
</svg>
