<?xml version="1.0" standalone="no"?>
<!DOCTYPE svg PUBLIC "-//W3C//DTD SVG 20010904//EN"
 "http://www.w3.org/TR/2001/REC-SVG-20010904/DTD/svg10.dtd">
<svg version="1.0" xmlns="http://www.w3.org/2000/svg"
 width="512.000000pt" height="512.000000pt" viewBox="0 0 512.000000 512.000000"
 preserveAspectRatio="xMidYMid meet">
<metadata>
Created by potrace 1.16, written by Peter Selinger 2001-2019
</metadata>
<g transform="translate(0.000000,512.000000) scale(0.100000,-0.100000)"
fill="#000000" stroke="none">
<path d="M2285 4730 c-560 -85 -1033 -345 -1393 -765 -387 -452 -585 -1045
-533 -1595 25 -260 80 -466 180 -675 281 -586 838 -1071 1418 -1234 195 -55
281 -65 563 -65 283 0 406 13 610 66 422 109 816 360 1121 714 91 107 216 280
212 295 -2 5 24 63 58 130 33 66 78 166 99 222 42 110 52 118 20 16 -10 -35
-17 -65 -15 -67 2 -2 20 47 39 109 74 236 108 524 88 757 -13 151 -63 417 -76
405 -5 -4 -6 3 -3 17 4 14 7 32 8 40 3 46 75 -294 89 -420 l9 -85 -5 100 c-10
182 -67 421 -150 630 -57 140 -168 351 -183 347 -7 -1 -10 2 -7 7 8 12 -33 83
-44 76 -5 -3 -12 0 -16 6 -4 8 -3 9 4 5 22 -13 12 5 -41 77 -310 418 -759 727
-1230 848 -236 60 -576 76 -822 39z m744 -39 c349 -70 670 -232 958 -483 93
-82 220 -220 325 -353 51 -65 56 -74 26 -50 -19 17 -78 78 -131 136 -408 454
-904 710 -1467 759 -69 6 -159 12 -200 14 -41 2 29 2 155 1 186 -2 250 -7 334
-24z m-164 -47 c376 -54 751 -227 1050 -486 291 -251 501 -550 681 -970 48
-113 90 -260 114 -405 19 -111 21 -154 17 -323 -5 -200 -27 -371 -52 -400 -7
-8 -32 -69 -55 -135 -87 -246 -193 -456 -307 -610 -77 -103 -295 -326 -398
-407 -406 -317 -872 -476 -1330 -454 -485 24 -915 179 -1300 469 -135 102
-368 345 -465 484 -167 241 -245 407 -301 639 -67 280 -78 529 -40 843 26 205
31 230 71 344 60 170 179 395 201 382 5 -4 6 1 3 9 -4 9 0 18 9 22 9 3 34 35
57 71 22 36 83 116 135 178 255 304 596 535 974 659 324 106 623 135 936 90z
m-930 -48 c-465 -154 -830 -421 -1119 -816 -78 -106 -76 -93 2 20 63 90 177
223 253 296 81 77 255 215 340 270 153 99 369 201 530 248 138 41 134 29 -6
-18z m2470 -916 c94 -141 183 -321 229 -460 19 -58 35 -99 36 -91 0 8 2 12 5
10 2 -3 1 -18 -4 -35 -7 -26 -11 -19 -40 75 -53 170 -181 417 -307 594 -19 26
-34 50 -34 54 0 16 43 -38 115 -147z m-3948 -697 c-3 -10 -5 -4 -5 12 0 17 2
24 5 18 2 -7 2 -21 0 -30z m-23 -154 c-13 -98 -15 -169 -10 -344 4 -121 8
-240 11 -265 2 -25 -2 -6 -10 43 -30 199 -28 419 7 628 18 113 20 72 2 -62z
m13 -691 c-3 -8 -6 -5 -6 6 -1 11 2 17 5 13 3 -3 4 -12 1 -19z m132 -403 c0
-5 -8 6 -19 25 -11 19 -19 40 -19 45 0 6 8 -6 19 -25 11 -19 19 -39 19 -45z
m61 -112 c90 -167 193 -312 319 -448 330 -355 702 -578 1176 -706 73 -20 93
-28 60 -24 -159 19 -414 108 -588 205 -433 241 -752 557 -972 963 -26 48 -45
87 -42 87 3 0 24 -35 47 -77z m1643 -1190 c-7 -2 -19 -2 -25 0 -7 3 -2 5 12 5
14 0 19 -2 13 -5z m70 -10 c-7 -2 -19 -2 -25 0 -7 3 -2 5 12 5 14 0 19 -2 13
-5z m100 -10 c-7 -2 -21 -2 -30 0 -10 3 -4 5 12 5 17 0 24 -2 18 -5z"/>
<path d="M2530 4570 c0 -92 10 -85 -131 -94 -152 -10 -360 -61 -518 -125 l-73
-31 -19 23 c-20 24 -25 17 -9 -13 9 -16 -3 -25 -96 -74 -58 -31 -121 -68 -140
-82 -19 -15 -41 -24 -49 -20 -9 3 -15 0 -15 -10 0 -8 -13 -23 -30 -32 -27 -16
-39 -32 -24 -32 4 0 28 13 54 29 l48 29 21 -29 c21 -28 23 -28 50 -15 48 25
58 44 39 76 l-16 27 52 31 c267 161 660 255 1001 239 366 -17 670 -120 1008
-341 15 -10 27 -14 27 -8 0 33 -331 211 -501 270 -124 44 -306 82 -420 89
l-99 6 -2 86 c-1 61 -3 70 -5 34 -2 -29 -7 -53 -10 -53 -3 0 -30 23 -59 50
-75 71 -84 68 -84 -30z m124 -49 l30 -31 -67 0 -67 0 0 61 0 61 38 -30 c20
-17 50 -44 66 -61z m-1027 -356 c3 -9 3 -19 -1 -22 -8 -9 -37 18 -30 28 8 14
24 11 31 -6z m-51 -30 c2 -28 -11 -33 -20 -8 -4 9 -1 20 6 25 7 4 13 8 13 8 0
0 1 -11 1 -25z m44 -16 c0 -5 -7 -9 -15 -9 -15 0 -20 12 -9 23 8 8 24 -1 24
-14z"/>
<path d="M2470 4420 c0 -6 11 -8 28 -4 39 10 40 14 4 14 -18 0 -32 -5 -32 -10z"/>
<path d="M2578 4392 l4 -39 -134 -6 c-306 -15 -605 -118 -884 -305 -262 -176
-429 -359 -568 -624 -123 -234 -186 -522 -186 -854 0 -268 42 -451 154 -679
116 -234 206 -367 324 -481 40 -38 42 -43 31 -68 -7 -14 -15 -26 -19 -26 -16
0 -148 146 -198 218 -29 42 -85 133 -124 201 -40 69 -73 120 -75 114 -5 -14
32 -106 72 -178 l33 -60 -45 -39 -44 -39 -17 24 c-23 32 -21 44 5 42 24 -3 31
12 11 21 -9 3 -7 9 6 20 17 13 17 16 4 16 -9 0 -20 -9 -23 -20 -9 -28 -25 -25
-25 4 0 16 7 27 20 31 11 3 20 11 20 16 0 12 -7 11 -32 -2 -30 -16 -36 0 -8
22 l25 21 -26 -6 c-33 -7 -37 -2 -82 104 -45 106 -91 282 -112 421 -21 145
-20 147 13 152 l27 4 -27 2 c-28 1 -28 2 -28 71 0 63 2 70 20 70 11 0 20 5 20
10 0 6 -10 10 -21 10 -22 0 -22 2 -16 143 10 258 58 450 167 672 83 169 116
219 141 211 59 -18 64 -19 52 -6 -9 9 -9 19 -2 33 8 13 8 22 0 30 -8 8 -13 2
-17 -21 -7 -32 -18 -41 -29 -22 -5 8 6 34 32 79 2 2 11 -3 21 -12 24 -22 39
-21 52 3 8 16 6 26 -12 50 -14 20 -25 27 -32 20 -6 -6 -2 -18 14 -35 13 -14
21 -28 17 -31 -9 -10 -28 6 -21 18 4 7 2 8 -5 4 -6 -4 -18 0 -27 9 -15 15 -15
18 2 38 10 12 20 24 21 26 2 2 21 -8 43 -23 22 -14 40 -22 40 -17 0 11 -53 51
-68 51 -5 0 -29 16 -54 35 -56 42 -71 34 -20 -11 l37 -34 -29 -24 -30 -25 -23
25 c-19 20 -26 23 -43 14 -45 -24 -10 -90 49 -92 27 -1 30 -4 25 -22 -9 -30
-11 -31 -40 -12 -33 22 -44 13 -14 -12 l22 -18 -32 -57 c-17 -31 -36 -59 -41
-62 -4 -3 -27 4 -49 15 -51 26 -78 20 -32 -6 68 -39 67 -31 24 -124 -21 -47
-49 -114 -62 -150 -13 -36 -24 -66 -25 -68 -1 -1 -13 1 -26 6 -46 17 -79 22
-79 13 0 -6 22 -18 48 -27 l48 -17 -17 -74 c-64 -268 -66 -691 -5 -963 l23
-101 -59 -17 c-32 -9 -58 -20 -58 -24 0 -10 23 -10 52 1 58 21 78 22 78 4 1
-10 17 -58 36 -108 19 -49 37 -97 40 -105 4 -11 -10 -23 -45 -40 -28 -13 -51
-29 -51 -37 0 -18 3 -17 57 17 26 16 50 30 53 30 9 0 40 -56 40 -72 0 -8 -15
-19 -33 -26 -42 -15 -74 -38 -65 -47 3 -4 26 5 51 19 40 24 57 25 57 5 0 -4
-9 -11 -21 -14 -26 -9 -42 -50 -29 -76 13 -24 57 -25 82 -2 12 11 22 13 29 6
6 -6 -4 -19 -33 -39 -24 -15 -45 -30 -47 -31 -2 -2 -1 -6 2 -10 4 -3 27 8 52
26 25 18 49 30 54 27 8 -5 51 -81 51 -90 0 -2 -18 -16 -41 -32 -23 -15 -36
-30 -30 -32 6 -2 26 8 44 22 19 14 38 25 43 25 5 -1 49 -44 99 -96 l90 -94
-33 -25 c-34 -27 -41 -44 -17 -44 8 0 15 -9 15 -20 0 -27 41 -27 65 0 21 24 8
47 -20 36 -14 -5 -15 -9 -6 -20 9 -10 9 -16 1 -21 -6 -4 -18 1 -25 11 -12 17
-11 22 9 43 l24 23 31 -23 c17 -12 31 -28 31 -34 0 -7 -19 -27 -42 -45 -25
-20 -36 -36 -29 -38 7 -2 32 14 55 37 l42 42 50 -39 c243 -193 562 -341 840
-391 136 -24 334 -38 334 -24 0 7 -43 14 -102 18 -118 7 -289 33 -301 45 -5 4
-6 17 -3 28 5 15 13 18 29 14 44 -10 8 10 -39 22 -27 7 -60 16 -73 21 -16 5
-21 4 -17 -4 4 -6 27 -16 51 -22 41 -10 43 -13 33 -34 l-10 -23 -72 20 c-155
44 -349 135 -505 238 l-93 61 19 22 c34 37 37 54 4 19 -34 -36 -31 -36 -104
17 l-47 35 27 28 c20 21 24 31 15 40 -13 13 -75 -8 -66 -23 3 -5 17 -1 31 8
20 13 25 14 22 4 -3 -8 -15 -21 -27 -29 -21 -13 -27 -8 -147 109 -114 111
-124 124 -110 139 23 25 18 34 -8 17 -21 -14 -24 -13 -33 1 -8 12 -4 22 15 40
l26 24 -28 -17 c-16 -9 -30 -15 -31 -13 -1 2 -12 19 -24 38 l-21 36 25 32 c14
18 29 32 33 32 4 0 33 -37 64 -82 61 -90 209 -244 232 -242 8 1 13 -1 11 -5
-5 -7 114 -98 229 -175 94 -64 307 -167 431 -210 93 -31 244 -66 356 -81 91
-12 362 -6 473 10 121 18 297 61 390 96 174 64 432 212 557 320 31 27 60 49
65 49 5 0 28 -19 51 -43 35 -35 40 -45 30 -57 -7 -8 7 2 32 21 64 52 85 82 71
106 -6 13 -21 20 -41 21 -30 1 -31 -1 -25 -26 3 -15 11 -31 17 -37 8 -7 9 -5
6 5 -3 8 1 21 8 28 12 11 14 9 14 -6 0 -10 -8 -26 -19 -36 -16 -15 -19 -15
-31 -1 -7 8 -19 15 -28 15 -12 0 -11 -5 7 -24 12 -13 18 -27 13 -30 -12 -7
-45 29 -47 52 -1 10 -18 42 -38 71 l-36 54 55 60 c209 225 373 636 391 980 l6
107 28 0 c29 0 29 -1 29 -59 0 -75 -26 -277 -46 -356 -68 -272 -209 -551 -361
-715 -40 -44 -53 -65 -48 -77 6 -15 21 -3 85 66 124 133 236 325 308 532 55
155 102 413 102 554 0 41 2 45 25 45 14 0 25 -4 25 -10 0 -5 5 -10 10 -10 6 0
10 6 10 14 0 16 -43 26 -115 26 l-52 0 -7 83 c-10 122 -51 313 -97 450 -89
266 -225 497 -399 680 l-101 106 17 25 c9 15 20 26 24 26 14 0 160 -162 235
-262 94 -124 148 -216 206 -354 91 -213 154 -449 167 -621 l7 -88 55 -2 c50
-2 52 -1 23 8 -36 11 -36 10 -54 144 -28 215 -112 479 -216 685 -35 68 -59
126 -54 128 6 2 11 8 11 13 0 6 -4 7 -10 4 -11 -7 -41 25 -138 151 -38 49
-104 122 -147 161 -72 67 -76 73 -65 95 7 12 19 31 28 41 25 28 -4 20 -40 -12
l-32 -29 -46 39 c-25 21 -83 61 -130 89 -244 148 -491 227 -765 246 l-95 7 0
40 c0 53 -6 44 -13 -19 l-6 -52 92 -7 c329 -25 640 -139 885 -323 l53 -40 -28
-20 -27 -20 -88 60 c-231 155 -476 240 -773 268 -60 5 -113 10 -117 10 -3 0
-10 41 -14 90 -3 50 -9 90 -13 90 -4 0 -5 -17 -3 -38z m2 -101 l0 -38 -102 -8
c-351 -24 -660 -140 -948 -357 -207 -155 -349 -326 -477 -578 -53 -103 -139
-318 -130 -326 2 -2 31 63 65 144 59 141 163 336 219 412 170 227 367 390 628
516 220 107 407 159 613 171 102 5 112 5 112 -11 0 -24 -34 -160 -72 -282
l-30 -101 -68 -7 c-144 -13 -332 -87 -493 -193 -40 -26 -125 -99 -189 -164
l-118 -116 -146 89 c-80 49 -148 87 -150 85 -3 -2 20 -23 51 -47 30 -23 53
-46 50 -50 -3 -5 29 -36 70 -70 l75 -62 -26 -42 c-103 -165 -194 -446 -194
-597 0 -47 5 -46 -195 -54 -148 -5 -249 -14 -242 -21 5 -5 347 -44 388 -44 33
0 37 -3 43 -31 3 -17 6 -51 6 -74 0 -100 52 -289 110 -405 l30 -60 -22 0 c-33
0 -91 -37 -82 -53 23 -41 76 -78 55 -38 -9 16 -4 23 27 43 l36 25 57 -81 c30
-45 60 -81 66 -81 6 0 15 -4 20 -9 5 -5 3 -6 -4 -2 -7 4 -13 2 -13 -3 0 -6 9
-11 20 -11 15 0 27 14 45 52 24 52 24 52 5 83 -12 20 -19 48 -18 80 0 34 -8
69 -27 110 -59 130 -105 303 -105 396 l0 39 49 0 c27 0 62 -3 78 -6 29 -6 31
-8 37 -72 13 -146 67 -286 156 -410 34 -47 57 -89 53 -95 -23 -40 -109 -144
-180 -218 -46 -47 -80 -89 -77 -92 7 -7 -86 -99 -131 -130 -16 -11 4 15 45 59
73 77 55 63 -79 -61 -54 -50 -54 -50 -24 -10 70 94 183 255 183 262 0 27 -158
-163 -246 -296 l-48 -73 -74 76 c-156 163 -300 439 -373 715 -81 308 -61 704
52 1045 126 380 429 711 838 916 246 123 454 177 741 193 30 2 56 4 58 5 1 1
2 -15 2 -37z m328 -92 c132 -26 290 -78 396 -131 89 -45 266 -157 266 -169 0
-11 -277 -253 -297 -260 -10 -3 -57 15 -108 41 -51 26 -128 60 -171 75 -83 30
-102 40 -91 51 12 12 193 -69 317 -141 35 -21 40 -22 21 -5 -35 31 -187 111
-260 138 -47 16 -81 39 -125 80 -34 31 -90 72 -124 90 -35 19 -65 39 -68 45
-2 7 -15 59 -28 116 l-24 104 95 -7 c52 -4 143 -16 201 -27z m-343 -126 c-10
-94 -13 -884 -3 -851 4 14 6 2 6 -32 0 -35 -2 -48 -7 -36 -13 33 -18 7 -31
-144 -7 -80 -15 -149 -18 -154 -3 -5 5 -6 19 -3 13 4 30 7 38 7 11 0 12 25 6
135 -4 74 -5 135 -2 135 2 0 10 -61 17 -136 11 -108 16 -137 29 -141 74 -23
171 -94 171 -125 0 -6 -11 -1 -25 12 -14 13 -25 20 -25 15 0 -5 -10 1 -22 13
-35 32 -108 62 -155 62 -56 0 -73 -8 -73 -36 0 -30 -57 -64 -71 -42 -13 20
-11 25 13 42 12 9 19 16 14 16 -5 0 -30 -16 -57 -35 -64 -48 -109 -135 -109
-213 0 -84 19 -131 75 -189 106 -109 259 -110 359 -3 26 28 53 65 61 83 19 47
27 118 16 152 l-9 30 -1 -32 c-1 -33 -2 -33 -49 -33 -45 0 -48 -2 -57 -32 -28
-93 -155 10 -180 145 -4 20 -10 37 -14 37 -3 0 -23 -11 -43 -25 -81 -55 -84
-157 -7 -240 71 -77 141 -83 226 -18 40 30 45 32 32 12 -27 -40 -94 -72 -154
-72 -169 0 -242 179 -128 312 96 112 253 106 343 -14 32 -43 37 -37 11 14 -27
52 -27 69 0 45 70 -63 92 -210 45 -310 -13 -28 -29 -55 -35 -58 -6 -4 -16 -16
-21 -26 -8 -16 -7 -18 4 -14 17 6 66 -71 66 -103 0 -16 103 -119 159 -160 3
-2 -6 -11 -18 -21 -30 -22 -165 -92 -169 -87 -2 1 -19 65 -38 140 -19 76 -39
144 -44 150 -12 15 -50 8 -50 -9 0 -20 39 -170 59 -228 l19 -56 -43 -11 c-24
-6 -52 -11 -63 -11 -16 0 -20 -10 -25 -67 -4 -38 -7 -92 -7 -120 0 -62 -7 -60
125 -38 143 23 229 57 358 142 37 25 69 44 71 42 1 -2 21 -31 44 -63 54 -76
54 -62 0 28 -54 91 -162 234 -271 361 -100 115 -126 168 -107 215 l12 30 106
0 105 0 71 -53 c39 -29 82 -60 96 -69 14 -9 43 -33 65 -54 22 -20 31 -31 20
-23 -11 7 -35 26 -52 43 -26 24 -33 26 -33 13 0 -21 -29 -16 -110 21 -85 38
-173 72 -177 69 -1 -2 50 -27 115 -56 64 -30 121 -57 126 -62 11 -10 -89 -179
-106 -179 -6 0 -39 49 -115 169 -68 107 -69 93 -2 -19 74 -124 236 -336 307
-404 72 -69 75 -62 -43 -149 -117 -87 -264 -155 -393 -182 -31 -6 -33 -5 -24
12 10 17 -6 145 -20 158 -3 3 -29 1 -58 -5 -29 -5 -67 -10 -85 -10 l-32 0 -7
-82 c-4 -46 -9 -91 -12 -100 -5 -15 1 -18 38 -18 105 0 311 49 441 105 10 4
17 3 17 -5 0 -18 -158 -87 -251 -110 -46 -11 -123 -23 -170 -26 l-86 -7 -6
-51 c-39 -351 -48 -419 -54 -429 -10 -15 -21 34 -20 88 l0 40 7 -45 c5 -33 7
-15 9 70 2 162 17 358 46 593 20 165 45 464 45 538 0 13 -13 17 -59 22 -140
12 -257 112 -277 236 -4 23 -9 43 -13 45 -3 2 -116 6 -251 9 -243 5 -243 1 3
-22 59 -6 116 -15 125 -21 14 -9 11 -10 -13 -6 -16 3 -95 10 -175 16 -80 6
-192 15 -250 20 -58 6 -197 15 -309 20 -113 6 -206 12 -208 14 -2 2 88 6 199
10 112 4 295 13 408 21 113 8 252 17 310 20 172 10 175 11 195 56 20 43 105
129 129 129 9 0 13 6 10 13 -3 8 4 54 15 103 35 158 101 653 101 757 0 31 -3
37 -21 37 -16 0 -20 5 -16 20 3 11 20 108 38 215 18 107 35 195 37 195 2 0 1
-35 -3 -77z m70 -138 c14 -93 29 -173 33 -176 4 -3 33 -11 65 -18 112 -24 238
-87 370 -185 37 -27 67 -54 67 -60 0 -6 -21 -31 -46 -57 l-46 -46 -66 34 c-86
43 -202 80 -281 89 l-62 7 11 -27 c5 -15 10 -81 10 -146 l0 -118 39 -7 c21 -3
67 -20 101 -36 34 -16 63 -29 64 -29 2 0 30 36 64 79 l62 80 -75 37 c-42 21
-113 48 -158 60 -45 12 -74 23 -63 23 38 2 144 -32 234 -75 l94 -44 -20 -27
c-30 -42 -218 -262 -265 -311 -36 -36 -43 -40 -49 -25 -5 15 -7 14 -7 -4 -1
-13 3 -23 9 -23 12 0 67 47 175 151 44 42 94 84 112 93 37 19 83 21 83 4 0 -6
-54 -66 -120 -132 -109 -110 -121 -120 -140 -108 -31 19 -51 14 -104 -26 -27
-20 -54 -41 -61 -46 -7 -5 -20 -6 -29 -3 -12 5 -16 20 -16 64 0 32 -3 96 -6
143 -3 48 -2 80 3 73 5 -6 21 -16 36 -22 18 -7 27 -18 27 -32 0 -12 2 -20 5
-18 7 7 -34 401 -45 429 -24 65 -51 359 -49 555 1 122 12 91 44 -120z m1093
-179 c149 -155 258 -322 346 -530 86 -200 140 -411 153 -590 l6 -89 -74 7
c-41 4 -290 12 -554 17 -264 5 -527 13 -585 18 -58 6 -119 10 -137 10 -31 1
-61 30 -49 49 2 4 89 0 193 -10 166 -15 601 -40 918 -52 106 -4 108 -3 39 6
l-71 10 -6 87 c-4 47 -13 106 -21 131 -10 27 -13 33 -11 15 10 -60 24 -180 25
-202 0 -19 -5 -23 -34 -23 l-34 0 -7 63 c-18 168 -75 346 -161 506 -41 76 -44
85 -30 100 21 23 20 33 -4 63 -12 16 -27 24 -42 23 -18 -3 -42 16 -101 79
l-78 83 87 119 c48 65 99 136 113 156 14 21 29 37 32 38 3 0 43 -38 87 -84z
m-1279 52 c0 -7 -6 -28 -13 -47 -12 -34 -14 -35 -118 -57 -217 -45 -389 -138
-555 -300 l-103 -100 -28 18 -27 18 130 128 c101 98 153 140 229 185 112 67
230 117 331 140 122 29 155 32 154 15z m-1512 -88 c8 -13 9 -21 2 -25 -13 -8
-39 13 -39 31 0 21 23 17 37 -6z m63 -31 c0 -5 -10 -9 -21 -9 -18 0 -19 2 -9
15 12 15 30 12 30 -6z m1489 -133 c-2 -2 -46 -11 -98 -20 -111 -19 -225 -56
-298 -97 -67 -37 -68 -31 -2 11 89 58 251 108 353 109 27 1 47 -1 45 -3z m-9
-48 c0 -13 -5 -60 -11 -104 l-12 -81 -76 -16 c-42 -8 -83 -18 -92 -21 -10 -5
-20 1 -27 16 -12 23 -12 23 -9 -4 3 -21 -1 -29 -17 -34 -41 -12 -142 -79 -194
-128 l-53 -50 -47 45 c-26 24 -34 29 -18 12 17 -18 27 -33 23 -33 -14 0 -127
94 -127 106 0 17 92 99 165 146 137 90 344 164 463 167 27 1 32 -3 32 -21z
m981 -56 c52 -50 81 -86 83 -102 2 -14 20 -48 40 -75 103 -134 204 -403 221
-588 l7 -79 -83 7 c-109 8 -109 8 -109 50 0 47 -27 175 -52 250 -50 145 -151
316 -234 395 -54 51 -49 38 11 -35 99 -118 191 -296 226 -434 28 -113 21 -147
-12 -51 l-25 75 -67 -1 c-37 0 -69 -3 -73 -6 -3 -3 2 -43 10 -88 9 -45 16 -95
16 -111 l0 -28 -82 6 c-46 3 -86 11 -90 17 -4 6 -8 25 -8 42 0 17 -7 53 -15
79 -8 27 -13 50 -11 52 2 2 34 14 72 27 67 23 69 24 67 56 -2 46 -83 204 -134
263 l-41 48 -54 -72 c-30 -40 -54 -74 -54 -76 0 -2 11 -20 24 -41 43 -68 97
-183 91 -192 -4 -6 -11 -10 -16 -10 -17 0 -221 -82 -216 -86 2 -3 53 14 113
36 60 22 114 40 121 40 14 0 29 -49 39 -127 8 -62 30 -57 -188 -43 -195 13
-215 17 -228 41 -10 17 2 40 79 154 50 74 91 139 91 145 0 5 4 10 10 10 5 0
18 17 29 38 11 21 66 101 123 177 57 77 130 175 162 219 l58 78 46 -43 47 -44
-42 45 c-40 43 -51 60 -37 60 3 0 41 -35 85 -78z m-1938 -88 c234 -139 336
-207 406 -272 29 -26 18 -22 -51 22 -49 31 -88 54 -88 51 0 -9 166 -123 184
-126 44 -9 146 -173 122 -197 -3 -3 -25 3 -48 14 -58 26 -172 136 -239 229
-47 67 -78 95 -232 211 -98 74 -176 134 -172 134 3 0 56 -30 118 -66z m921
-156 c-7 -51 -16 -119 -20 -150 -4 -32 -11 -58 -16 -58 -9 0 -128 240 -128
259 0 15 81 38 141 40 l36 1 -13 -92z m-860 53 c17 -19 16 -22 -23 -90 -78
-133 -144 -335 -158 -483 -6 -67 -6 -68 -34 -68 -34 0 -34 0 -14 130 18 119
44 213 88 317 40 95 104 213 116 213 4 0 16 -9 25 -19z m685 -38 c18 -62 79
-335 86 -380 8 -48 2 -52 -48 -29 -18 8 -48 21 -67 29 -46 18 -144 100 -195
163 l-40 49 80 -63 c44 -34 100 -79 125 -99 l45 -37 -35 38 c-19 21 -74 70
-122 109 -49 39 -88 74 -88 78 0 16 109 103 174 140 39 21 72 39 73 39 1 0 7
-17 12 -37z m724 -205 c-12 -13 -42 -56 -68 -97 -35 -53 -50 -70 -56 -60 -18
29 -7 49 62 113 70 65 102 87 62 44z m-1331 -90 c33 -18 62 -38 65 -45 3 -7
-4 -48 -16 -91 -12 -43 -21 -95 -21 -115 0 -20 -4 -38 -9 -41 -5 -4 -43 -9
-85 -13 l-76 -6 0 37 c0 80 56 306 76 306 3 0 33 -14 66 -32z m182 -125 c-2
-25 -25 -157 -28 -160 -1 -1 -27 -5 -58 -9 l-56 -7 4 44 c3 24 12 76 21 114 9
39 16 75 16 82 0 7 22 -1 51 -18 33 -18 51 -35 50 -46z m151 -100 c59 -53 59
-53 29 -53 -17 0 -65 -3 -107 -6 l-77 -7 0 30 c0 16 5 55 11 86 l12 57 37 -28
c20 -15 63 -51 95 -79z m1452 45 c-3 -8 -6 -5 -6 6 -1 11 2 17 5 13 3 -3 4
-12 1 -19z m10 -80 c-2 -13 -4 -3 -4 22 0 25 2 35 4 23 2 -13 2 -33 0 -45z
m-2054 -225 c12 -159 72 -339 154 -462 l44 -66 -22 -18 c-12 -10 -26 -14 -30
-10 -4 4 -30 45 -58 91 -82 136 -133 300 -147 471 l-7 81 30 0 30 0 6 -87z
m2827 3 c0 -320 -170 -753 -398 -1014 l-37 -43 -80 102 c-44 55 -95 115 -115
131 -19 17 -57 51 -83 75 l-48 45 43 46 c24 26 59 69 78 95 l34 48 44 -48 45
-48 14 40 c14 40 14 40 -20 70 l-35 30 24 47 c64 126 114 288 129 421 l6 57
36 0 35 0 -7 -77 c-13 -140 -87 -385 -136 -447 -18 -23 -18 -25 -3 -34 19 -10
17 -13 95 205 32 88 53 185 64 294 l6 66 127 10 c70 5 139 10 155 11 l27 2 0
-84z m-2399 58 l65 -7 12 -66 c7 -36 14 -75 18 -86 4 -16 -3 -26 -36 -44 -52
-29 -46 -39 8 -12 l39 20 18 -39 c10 -22 32 -61 50 -87 l31 -47 -45 -61 c-26
-34 -54 -72 -63 -86 -16 -24 -16 -24 -32 -4 -118 148 -195 338 -196 483 0 41
1 42 33 42 17 0 62 -3 98 -6z m249 -24 c161 -15 170 -17 170 -38 0 -20 -186
-282 -200 -282 -12 0 -67 80 -85 124 -17 41 -23 36 113 106 56 29 100 55 98
57 -2 3 -54 -21 -116 -52 -61 -32 -113 -55 -116 -53 -8 9 -32 147 -26 153 3 3
13 3 21 1 9 -3 72 -10 141 -16z m1730 -4 c0 -95 -61 -309 -124 -434 l-32 -63
-62 47 c-46 34 -61 51 -57 63 57 139 94 281 95 358 l0 42 58 4 c131 8 122 9
122 -17z m-196 -43 c-11 -91 -24 -117 -18 -35 l6 72 -61 0 c-68 0 -64 5 -76
-95 -4 -27 -13 -77 -22 -110 l-15 -60 31 -27 c17 -16 43 -28 57 -28 22 0 24
-3 18 -22 -20 -67 -107 -209 -169 -279 l-33 -37 -60 62 -60 61 61 77 c109 135
177 294 177 416 l0 45 -76 -6 c-45 -3 -73 -2 -68 3 9 9 74 13 242 18 l73 2 -7
-57z m-27 -135 c-3 -8 -6 -5 -6 6 -1 11 2 17 5 13 3 -3 4 -12 1 -19z m-297
-56 c51 -25 75 -42 74 -54 -2 -22 -81 -141 -134 -201 l-42 -47 -60 76 -60 76
31 42 c17 22 44 65 58 94 16 30 34 52 43 51 8 0 49 -17 90 -37z m-940 -166 c0
-68 3 -131 6 -140 10 -27 -31 -19 -109 19 -119 59 -117 54 -50 117 102 96 138
127 146 128 4 0 7 -56 7 -124z m-141 27 c-12 -14 -179 -150 -234 -191 -11 -8
14 19 56 60 62 60 171 146 188 148 2 0 -3 -7 -10 -17z m896 -219 c-65 -54
-269 -153 -317 -154 -16 0 -18 10 -18 77 0 67 2 75 14 63 8 -8 19 -35 25 -60
l11 -45 -5 45 c-2 25 -7 64 -11 86 l-6 42 61 27 c34 15 78 41 99 56 l37 28 70
-70 70 -70 -30 -25z m465 111 c42 -43 44 -46 30 -69 -23 -37 -133 -176 -140
-176 -16 0 -40 63 -40 104 0 37 7 55 36 93 20 27 41 58 47 71 6 12 13 22 17
22 3 0 26 -20 50 -45z m-1325 -54 c33 -16 72 -33 88 -39 27 -11 27 -12 27
-107 0 -75 -3 -95 -14 -95 -8 0 -54 14 -103 31 -90 32 -155 67 -231 125 l-42
32 77 61 78 60 30 -20 c16 -11 57 -33 90 -48z m-233 -107 c81 -59 159 -98 266
-133 l87 -29 5 -76 c3 -50 1 -76 -6 -76 -5 0 -44 9 -86 20 -146 38 -290 110
-395 198 l-43 36 52 53 c29 29 54 53 55 53 2 0 31 -21 65 -46z m465 -539 c0
-148 -2 -188 -7 -135 -4 41 -7 219 -7 395 1 295 1 306 8 135 3 -102 6 -279 6
-395z m-585 421 c99 -87 313 -185 442 -202 25 -4 46 -11 46 -15 0 -13 -7 -12
-112 15 -53 13 -130 40 -171 59 -82 38 -209 121 -247 162 -38 40 -13 29 42
-19z m1601 -23 c18 -20 65 -81 105 -135 l73 -99 -118 95 c-64 53 -120 96 -123
96 -4 0 -36 -24 -73 -53 -129 -103 -275 -178 -425 -217 -85 -22 -232 -44 -259
-38 -10 3 5 8 32 11 28 4 104 20 171 36 196 46 353 131 509 275 39 36 71 65
73 66 1 0 17 -16 35 -37z m-9 -110 c28 -26 95 -89 149 -139 l98 -92 -106 -80
c-300 -225 -632 -350 -983 -369 l-113 -6 7 39 c3 21 30 118 58 214 l51 174
112 13 c235 26 413 97 597 240 38 29 72 53 74 53 3 0 28 -21 56 -47z m-1693
-14 c118 -99 280 -177 456 -220 l92 -22 22 -66 c12 -36 32 -89 44 -117 25 -56
69 -233 61 -241 -7 -7 -182 14 -276 33 -228 47 -565 215 -757 380 -24 20 -43
32 -43 27 0 -16 144 -127 245 -190 243 -152 505 -242 754 -260 56 -3 91 -10
91 -17 0 -6 3 -22 7 -35 l6 -24 -96 6 c-119 8 -273 39 -395 79 -190 63 -447
205 -619 343 l-61 49 71 69 c60 58 318 242 346 246 2 1 25 -17 52 -40z m-907
-56 c-27 -20 -44 -16 -44 11 0 30 19 38 43 18 17 -16 17 -17 1 -29z m2884
-196 l21 -22 -60 -48 c-100 -80 -267 -185 -394 -247 -218 -108 -450 -167 -693
-177 l-143 -6 3 34 3 34 140 6 c364 17 738 163 1035 404 30 24 58 44 61 45 3
0 15 -10 27 -23z"/>
<path d="M2290 4025 c-42 -8 -116 -28 -165 -45 -101 -35 -239 -99 -232 -106 3
-3 22 3 44 14 125 63 292 116 433 137 62 9 73 13 40 13 -25 0 -79 -6 -120 -13z"/>
<path d="M1646 3731 c-5 -8 3 -33 19 -63 15 -27 25 -51 22 -54 -2 -3 -25 11
-51 31 l-47 36 -30 -21 c-16 -12 -29 -25 -29 -30 0 -10 131 -100 146 -100 6 0
20 10 32 23 l22 23 -33 70 c-19 38 -36 76 -39 84 -3 11 -6 11 -12 1z m-50
-110 c5 -5 26 -18 47 -29 21 -11 34 -22 30 -25 -5 -3 -35 10 -68 29 -38 21
-53 34 -39 34 11 0 24 -4 30 -9z"/>
<path d="M1324 3129 c-48 -95 -78 -178 -103 -275 -26 -109 -33 -154 -23 -154
4 0 14 33 20 72 16 94 71 257 117 348 20 40 34 74 31 77 -2 3 -21 -28 -42 -68z"/>
<path d="M1196 2463 c14 -161 53 -312 109 -423 24 -48 31 -70 22 -73 -6 -3 -7
-6 -2 -6 6 0 16 3 24 8 11 7 10 14 -7 38 -59 83 -132 351 -132 486 0 20 -5 37
-10 37 -7 0 -8 -24 -4 -67z"/>
<path d="M1250 1882 c-27 -22 -22 -47 19 -91 l29 -30 -34 -26 c-38 -29 -66
-32 -88 -9 -24 23 -20 53 9 66 14 6 25 15 25 20 0 13 -24 9 -48 -8 -29 -20
-29 -64 1 -92 31 -29 65 -28 108 4 19 14 51 34 71 45 51 26 63 51 43 89 -9 17
-28 36 -42 43 -23 10 -28 8 -53 -20 -32 -35 -47 -33 -23 3 18 29 13 30 -17 6z
m110 -27 c31 -38 -27 -96 -65 -65 -19 16 -19 25 1 55 18 28 45 32 64 10z"/>
<path d="M2807 4029 c135 -16 302 -68 435 -135 27 -14 52 -23 54 -21 8 8 -157
85 -240 112 -99 33 -213 55 -274 54 -40 -1 -36 -3 25 -10z"/>
<path d="M2453 2840 c-35 -14 -27 -20 10 -8 17 6 34 13 36 14 8 7 -24 3 -46
-6z"/>
<path d="M2888 2413 c7 -3 16 -2 19 1 4 3 -2 6 -13 5 -11 0 -14 -3 -6 -6z"/>
<path d="M3191 2324 c0 -11 3 -14 6 -6 3 7 2 16 -1 19 -3 4 -6 -2 -5 -13z"/>
<path d="M2635 2274 c-40 -14 -40 -14 -5 -9 19 3 39 10 44 15 12 12 12 12 -39
-6z"/>
<path d="M2701 3004 c0 -11 3 -14 6 -6 3 7 2 16 -1 19 -3 4 -6 -2 -5 -13z"/>
<path d="M3663 3422 l-43 -37 36 -42 c20 -24 39 -43 42 -43 4 0 29 15 55 34
58 42 49 56 -10 16 -28 -20 -45 -25 -49 -18 -7 11 12 30 52 54 17 10 17 12 -6
42 -14 17 -27 31 -30 31 -3 0 -24 -16 -47 -37z m64 -8 c4 -12 -52 -46 -61 -37
-3 4 4 17 16 30 22 23 39 26 45 7z"/>
<path d="M3830 3307 c0 -4 20 -47 44 -95 60 -120 102 -243 131 -387 30 -146
29 -132 8 -138 -14 -4 -12 -5 5 -6 28 -1 28 15 2 154 -22 112 -76 279 -115
354 -31 60 -74 128 -75 118z"/>
<path d="M3205 3250 c-17 -19 -17 -21 23 -72 62 -81 109 -164 132 -234 12 -35
25 -64 30 -64 12 0 22 68 14 103 -13 64 -108 222 -161 270 -19 16 -21 16 -38
-3z"/>
<path d="M1590 2924 c-27 -71 -72 -308 -52 -274 5 8 12 40 16 71 3 31 17 94
30 140 24 82 27 120 6 63z"/>
<path d="M4013 2423 c9 -2 23 -2 30 0 6 3 -1 5 -18 5 -16 0 -22 -2 -12 -5z"/>
<path d="M4020 2257 c0 -31 -71 -251 -107 -328 -35 -77 -45 -89 -58 -69 -3 6
-29 10 -56 10 -43 0 -51 -3 -61 -25 -16 -35 5 -81 44 -94 40 -14 36 -16 69 20
32 34 48 34 29 0 -6 -12 -7 -21 -2 -21 5 0 14 12 21 27 10 21 9 29 -3 41 -13
13 -11 22 14 72 55 109 132 361 116 377 -3 4 -6 -1 -6 -10z m-176 -428 c13
-12 -21 -59 -44 -59 -22 0 -50 25 -50 45 0 30 66 40 94 14z"/>
<path d="M3424 1435 c-10 -8 -14 -14 -9 -14 6 0 19 6 29 14 11 8 15 15 10 15
-6 0 -19 -7 -30 -15z"/>
<path d="M3376 1360 c-52 -40 -235 -132 -324 -164 -99 -35 -219 -65 -326 -81
-69 -10 -80 -13 -46 -14 106 -2 302 47 463 115 89 39 287 152 287 166 0 13
-13 8 -54 -22z"/>
<path d="M1665 1411 c59 -67 316 -209 464 -255 83 -26 259 -61 267 -53 3 2
-35 12 -83 21 -199 39 -412 131 -588 254 -44 31 -71 45 -60 33z"/>
<path d="M2655 4420 c3 -5 11 -10 16 -10 6 0 7 5 4 10 -3 6 -11 10 -16 10 -6
0 -7 -4 -4 -10z"/>
<path d="M2345 4411 c-3 -5 -1 -12 5 -16 5 -3 10 1 10 9 0 18 -6 21 -15 7z"/>
<path d="M2728 4413 c7 -3 16 -2 19 1 4 3 -2 6 -13 5 -11 0 -14 -3 -6 -6z"/>
<path d="M2795 4410 c4 -6 11 -8 16 -5 14 9 11 15 -7 15 -8 0 -12 -5 -9 -10z"/>
<path d="M2870 4400 c0 -5 9 -10 21 -10 11 0 17 5 14 10 -3 6 -13 10 -21 10
-8 0 -14 -4 -14 -10z"/>
<path d="M2206 4391 c-3 -4 6 -6 19 -3 14 2 25 6 25 8 0 8 -39 4 -44 -5z"/>
<path d="M2968 4383 c7 -3 16 -2 19 1 4 3 -2 6 -13 5 -11 0 -14 -3 -6 -6z"/>
<path d="M2105 4364 l-40 -13 40 5 c42 6 85 24 55 23 -8 0 -33 -7 -55 -15z"/>
<path d="M3047 4373 c-8 -8 35 -32 46 -25 11 5 -12 32 -28 32 -6 0 -15 -3 -18
-7z"/>
<path d="M3155 4335 c34 -16 72 -21 45 -6 -8 5 -28 11 -45 14 l-30 6 30 -14z"/>
<path d="M2010 4330 c-9 -6 -10 -10 -3 -10 6 0 15 5 18 10 8 12 4 12 -15 0z"/>
<path d="M1920 4303 c-25 -9 -40 -18 -34 -20 11 -4 84 24 84 32 0 3 -1 5 -2 4
-2 0 -23 -8 -48 -16z"/>
<path d="M3255 4299 c22 -10 47 -18 55 -19 8 0 -5 9 -29 20 -24 11 -48 20 -55
19 -6 0 7 -9 29 -20z"/>
<path d="M1430 4284 c0 -4 15 -27 34 -53 18 -25 35 -51 37 -58 3 -8 11 -7 29
3 14 9 17 13 8 10 -12 -3 -27 11 -53 50 -31 47 -55 68 -55 48z"/>
<path d="M1810 4260 c0 -5 4 -10 9 -10 6 0 13 5 16 10 3 6 -1 10 -9 10 -9 0
-16 -4 -16 -10z"/>
<path d="M3350 4262 c0 -11 59 -42 64 -33 3 4 -10 15 -29 24 -19 9 -35 13 -35
9z"/>
<path d="M1740 4220 c0 -5 5 -10 10 -10 6 0 10 5 10 10 0 6 -4 10 -10 10 -5 0
-10 -4 -10 -10z"/>
<path d="M3454 4205 c11 -8 22 -12 25 -9 6 6 -19 24 -34 24 -5 -1 -1 -7 9 -15z"/>
<path d="M1678 4203 c-10 -2 -18 -11 -18 -19 0 -20 14 -17 35 6 18 20 16 22
-17 13z"/>
<path d="M3775 4150 l-48 -49 116 -117 115 -117 -29 -25 c-42 -35 -27 -40 22
-7 l42 27 -94 94 c-51 52 -89 94 -83 94 14 0 76 89 69 100 -3 5 -18 18 -34 29
l-28 20 -48 -49z m63 -41 c-35 -44 -36 -44 -62 -24 -19 15 -19 16 19 55 36 37
40 39 56 24 17 -15 17 -18 -13 -55z"/>
<path d="M3511 4177 c35 -28 69 -46 69 -38 0 10 -50 41 -66 41 -4 0 -5 -1 -3
-3z"/>
<path d="M3605 4110 c4 -6 11 -8 16 -5 14 9 11 15 -7 15 -8 0 -12 -5 -9 -10z"/>
<path d="M3650 4091 c0 -5 12 -17 28 -26 l27 -18 -24 27 c-26 28 -31 31 -31
17z"/>
<path d="M1374 4024 c-18 -14 -18 -15 6 -8 22 6 23 5 11 -10 -20 -24 -8 -30
13 -7 10 11 15 25 11 30 -9 15 -18 14 -41 -5z"/>
<path d="M1211 3941 c-68 -64 -88 -78 -102 -70 -27 14 -99 11 -99 -4 0 -7 17
-30 38 -50 l38 -38 39 31 c42 33 68 41 42 12 -22 -24 -21 -34 4 -50 25 -16 45
-2 35 23 -5 14 -9 15 -22 4 -13 -11 -14 -9 -2 15 11 25 10 30 -7 42 -18 13
-18 15 10 44 l29 30 21 -20 c12 -11 24 -17 28 -13 4 3 -2 12 -13 20 -28 19
-25 28 15 59 l35 26 21 -26 c12 -15 23 -25 26 -22 5 5 -37 66 -46 66 -3 0 -44
-36 -90 -79z m-110 -91 c16 -9 17 -15 8 -31 -8 -17 -13 -18 -25 -8 -8 7 -20
21 -25 31 -11 21 9 25 42 8z"/>
<path d="M3735 3980 c-4 -7 -1 -19 8 -27 19 -19 29 -3 12 20 -9 13 -15 15 -20
7z"/>
<path d="M1290 3945 c-7 -9 -11 -17 -9 -20 3 -2 10 5 17 15 14 24 10 26 -8 5z"/>
<path d="M3820 3927 c0 -8 7 -20 15 -27 12 -10 15 -10 15 3 0 8 -7 20 -15 27
-12 10 -15 10 -15 -3z"/>
<path d="M3864 3876 c-10 -8 -15 -18 -11 -22 4 -4 15 0 24 9 22 21 12 31 -13
13z"/>
<path d="M4120 3813 c-25 -19 -46 -39 -48 -44 -2 -5 6 -22 18 -38 l21 -30 -31
-22 c-28 -21 -29 -24 -13 -41 15 -17 18 -17 40 -2 23 14 26 14 39 -3 19 -26
18 -28 -23 -39 -20 -5 -39 -15 -41 -23 -3 -9 0 -11 9 -6 7 5 27 10 44 12 l30
3 -30 -25 c-17 -14 -24 -25 -16 -25 8 0 23 8 34 17 18 17 20 17 39 -7 46 -56
140 -271 192 -437 68 -217 81 -309 81 -578 0 -223 -2 -249 -27 -366 -37 -172
-145 -469 -170 -469 -5 0 -18 5 -30 11 -11 6 -22 8 -25 5 -3 -3 9 -11 26 -18
l31 -13 -47 -82 c-42 -75 -48 -81 -63 -68 -9 8 -23 15 -31 15 -10 -1 -8 -4 5
-11 10 -6 35 -28 56 -49 41 -41 80 -66 80 -52 0 5 -18 22 -40 37 -22 16 -39
31 -38 34 2 3 22 38 46 78 l43 72 47 -30 c47 -30 62 -35 62 -21 0 4 -23 20
-50 35 -57 32 -57 33 -15 117 12 25 34 77 48 115 14 39 28 78 32 87 6 16 10
16 56 -2 27 -11 57 -20 65 -20 30 0 2 20 -52 37 -47 14 -55 20 -51 38 66 297
70 331 64 571 -4 175 -9 229 -31 332 -33 154 -75 285 -137 431 -27 62 -49 116
-49 120 0 3 23 19 52 35 29 16 47 31 40 34 -7 2 -33 -8 -59 -22 -49 -28 -66
-23 -55 16 3 15 0 19 -14 16 -36 -6 -24 27 22 57 25 17 49 29 55 28 12 -4 12
14 -1 22 -6 4 -24 -5 -41 -19 -17 -14 -42 -26 -55 -26 -17 0 -23 -4 -18 -12 4
-8 2 -8 -7 1 -8 8 -10 15 -4 17 28 11 76 46 82 59 6 17 -23 55 -43 55 -7 0
-24 -14 -38 -31 -22 -26 -27 -28 -33 -13 -4 12 5 27 35 53 l42 36 -20 25 -20
25 -20 -23 c-11 -13 -24 -21 -29 -18 -12 8 -24 -11 -16 -25 5 -7 15 -3 30 11
13 13 29 19 35 15 8 -5 3 -15 -16 -31 -35 -28 -42 -29 -66 -7 -18 16 -17 18
29 58 58 51 45 66 -17 18z m120 -133 c0 -19 -56 -57 -68 -46 -6 7 47 66 60 66
4 0 8 -9 8 -20z m-116 -5 c4 -10 -2 -19 -17 -24 -33 -13 -41 -2 -15 19 28 23
25 23 32 5z"/>
<path d="M3960 3795 c-30 -32 -10 -33 27 0 20 17 23 24 12 25 -8 0 -26 -11
-39 -25z"/>
<path d="M930 3806 c0 -2 7 -9 15 -16 13 -11 14 -10 9 4 -5 14 -24 23 -24 12z"/>
<path d="M4013 3757 c-28 -12 -28 -15 1 -50 20 -25 24 -26 36 -12 11 13 11 21
-1 44 -12 25 -17 27 -36 18z m25 -35 c6 -18 -15 -14 -22 4 -4 10 -1 14 6 12 6
-2 14 -10 16 -16z"/>
<path d="M965 3520 c-3 -5 1 -10 10 -10 9 0 13 5 10 10 -3 6 -8 10 -10 10 -2
0 -7 -4 -10 -10z"/>
<path d="M4353 3476 c-19 -14 -28 -27 -24 -35 5 -8 13 -6 26 9 10 11 24 19 31
16 7 -3 10 2 7 15 -3 10 -6 19 -7 18 0 0 -15 -11 -33 -23z"/>
<path d="M911 3434 c6 -8 18 -14 26 -14 20 0 8 16 -17 23 -17 4 -19 3 -9 -9z"/>
<path d="M4187 3443 c-12 -12 -7 -22 8 -17 8 4 15 10 15 15 0 11 -14 12 -23 2z"/>
<path d="M880 3349 c0 -5 5 -7 10 -4 6 3 10 8 10 11 0 2 -4 4 -10 4 -5 0 -10
-5 -10 -11z"/>
<path d="M4224 3345 c-10 -8 -14 -15 -8 -15 5 0 19 7 30 15 10 8 14 15 8 15
-5 0 -19 -7 -30 -15z"/>
<path d="M861 3294 c0 -11 3 -14 6 -6 3 7 2 16 -1 19 -3 4 -6 -2 -5 -13z"/>
<path d="M4270 3260 c-8 -5 -12 -11 -9 -14 2 -3 11 -1 19 4 8 5 12 11 9 14 -2
3 -11 1 -19 -4z"/>
<path d="M806 3199 c-19 -37 -20 -34 19 -43 30 -6 30 -6 8 10 -18 13 -21 20
-12 36 6 11 8 22 6 24 -3 3 -12 -9 -21 -27z"/>
<path d="M4270 3200 c0 -5 5 -10 10 -10 6 0 10 5 10 10 0 6 -4 10 -10 10 -5 0
-10 -4 -10 -10z"/>
<path d="M4567 3150 c3 -14 12 -41 20 -60 11 -30 12 -31 8 -6 -4 16 -13 43
-20 60 -11 23 -13 25 -8 6z"/>
<path d="M810 3141 c0 -5 7 -11 15 -15 8 -3 15 -1 15 3 0 5 -7 11 -15 15 -8 3
-15 1 -15 -3z"/>
<path d="M4301 3134 c0 -11 3 -14 6 -6 3 7 2 16 -1 19 -3 4 -6 -2 -5 -13z"/>
<path d="M4460 3118 c-59 -28 -29 -36 33 -9 26 11 47 23 47 26 0 11 -36 3 -80
-17z"/>
<path d="M785 3080 c-3 -4 -7 -30 -10 -57 l-4 -48 11 48 c7 34 14 47 24 43 8
-3 14 -1 14 3 0 13 -28 22 -35 11z"/>
<path d="M4315 3080 c-3 -5 -1 -10 4 -10 6 0 11 5 11 10 0 6 -2 10 -4 10 -3 0
-8 -4 -11 -10z"/>
<path d="M4601 3048 c-1 -3 8 -45 19 -93 12 -47 27 -125 34 -173 8 -48 14 -72
15 -53 2 53 -64 361 -68 319z"/>
<path d="M4354 3016 c-10 -8 -16 -17 -13 -20 3 -3 14 1 25 8 10 8 16 17 13 20
-3 3 -14 -1 -25 -8z"/>
<path d="M4368 2923 c5 -21 7 -23 10 -9 2 10 0 22 -6 28 -6 6 -7 0 -4 -19z"/>
<path d="M4380 2825 c4 -20 11 -39 14 -43 9 -8 -5 62 -15 72 -4 5 -4 -8 1 -29z"/>
<path d="M485 2729 c-10 -15 -10 -77 -1 -86 4 -4 28 -8 52 -8 34 0 44 -4 44
-16 0 -20 -20 -29 -61 -29 -24 0 -29 -4 -29 -25 0 -20 5 -25 25 -25 16 0 25 6
25 15 0 8 6 15 14 15 32 0 56 34 58 82 2 64 -20 88 -78 88 -24 0 -46 -5 -49
-11z m71 -15 c12 -3 26 -16 32 -28 9 -21 8 -22 -36 -21 -37 0 -47 4 -50 19 -2
10 2 22 10 27 16 10 17 10 44 3z"/>
<path d="M720 2731 c0 -9 34 -21 60 -20 8 0 0 6 -19 14 -39 18 -41 18 -41 6z"/>
<path d="M4395 2710 c3 -5 8 -10 11 -10 2 0 4 5 4 10 0 6 -5 10 -11 10 -5 0
-7 -4 -4 -10z"/>
<path d="M4634 2652 l6 -42 -65 0 -65 0 0 -55 c0 -30 5 -55 10 -55 6 0 10 17
10 38 l0 37 50 3 50 3 0 -40 c0 -23 5 -41 10 -41 15 0 13 177 -2 186 -8 5 -9
-4 -4 -34z"/>
<path d="M4671 2543 c-2 -322 -66 -593 -203 -867 -170 -340 -418 -619 -738
-831 -158 -105 -298 -176 -470 -236 -74 -26 -130 -48 -124 -48 23 -2 248 81
337 123 112 52 283 157 391 239 103 78 300 270 379 367 199 246 352 585 413
911 16 83 31 435 21 474 -2 11 -5 -48 -6 -132z"/>
<path d="M4375 2640 c-27 -7 -28 -8 -5 -8 14 0 34 3 45 8 25 11 2 11 -40 0z"/>
<path d="M713 2613 c15 -2 37 -2 50 0 12 2 0 4 -28 4 -27 0 -38 -2 -22 -4z"/>
<path d="M4565 2530 c0 -17 5 -30 13 -30 7 0 12 13 12 30 0 17 -5 30 -12 30
-8 0 -13 -13 -13 -30z"/>
<path d="M745 2510 c3 -5 10 -10 16 -10 5 0 9 5 9 10 0 6 -7 10 -16 10 -8 0
-12 -4 -9 -10z"/>
<path d="M760 2450 c0 -5 5 -10 11 -10 5 0 7 5 4 10 -3 6 -8 10 -11 10 -2 0
-4 -4 -4 -10z"/>
<path d="M4398 2325 c-2 -25 0 -45 3 -45 4 0 9 20 11 45 2 25 0 45 -3 45 -4 0
-9 -20 -11 -45z"/>
<path d="M710 2299 c0 -33 3 -40 16 -35 9 3 20 6 25 6 5 0 9 4 9 9 0 5 -9 7
-20 4 -29 -8 -27 35 3 47 21 8 21 9 -5 9 -26 1 -28 -2 -28 -40z"/>
<path d="M720 2234 c0 -40 21 -84 41 -84 25 0 24 16 -1 23 -13 3 -20 14 -20
29 0 12 -5 30 -10 38 -8 12 -10 11 -10 -6z"/>
<path d="M4378 2183 c6 -2 18 -2 25 0 6 3 1 5 -13 5 -14 0 -19 -2 -12 -5z"/>
<path d="M760 2100 c0 -8 5 -22 10 -30 9 -13 10 -13 10 0 0 8 -5 22 -10 30 -9
13 -10 13 -10 0z"/>
<path d="M4360 2100 c0 -5 5 -10 11 -10 5 0 7 5 4 10 -3 6 -8 10 -11 10 -2 0
-4 -4 -4 -10z"/>
<path d="M830 2028 c0 -9 -10 -19 -22 -21 -20 -4 -19 -4 5 -6 33 -1 35 -22 5
-45 -20 -15 -21 -16 -3 -10 11 3 26 7 33 7 14 0 8 47 -9 77 -7 13 -8 13 -9 -2z"/>
<path d="M4340 2030 c0 -5 5 -10 11 -10 5 0 7 5 4 10 -3 6 -8 10 -11 10 -2 0
-4 -4 -4 -10z"/>
<path d="M4315 1960 c4 -6 11 -8 16 -5 14 9 11 15 -7 15 -8 0 -12 -5 -9 -10z"/>
<path d="M4279 1844 c-5 -15 -12 -31 -16 -37 -3 -5 0 -8 7 -5 15 5 43 68 29
68 -5 0 -14 -12 -20 -26z"/>
<path d="M4250 1782 c0 -12 19 -26 26 -19 2 2 -2 10 -11 17 -9 8 -15 8 -15 2z"/>
<path d="M855 1770 c-3 -6 1 -7 9 -4 18 7 21 14 7 14 -6 0 -13 -4 -16 -10z"/>
<path d="M4340 1685 c0 -9 61 -36 73 -32 7 2 -2 11 -20 20 -32 17 -53 22 -53
12z"/>
<path d="M765 1647 c-22 -12 -42 -23 -44 -25 -3 -1 1 -8 7 -14 14 -14 78 17
93 45 13 24 -6 22 -56 -6z"/>
<path d="M4166 1609 c-24 -53 -13 -62 13 -10 23 44 25 51 14 51 -5 0 -16 -19
-27 -41z"/>
<path d="M922 1583 c-10 -4 -10 -8 -1 -19 13 -16 29 -10 29 12 0 15 -6 16 -28
7z"/>
<path d="M4097 1493 c-4 -3 -2 -12 4 -20 9 -10 15 -10 25 -2 16 13 18 1 4 -21
-8 -12 -11 -12 -28 3 -29 26 -51 22 -25 -5 21 -21 21 -23 5 -50 -18 -32 -27
-35 -36 -13 -3 8 -11 15 -17 15 -7 0 -2 -11 11 -25 l24 -25 21 20 21 20 39
-47 c22 -27 41 -41 43 -34 2 7 -7 25 -20 39 -51 57 -53 66 -6 32 58 -40 79
-31 26 12 -50 40 -49 55 1 22 22 -14 48 -24 58 -22 13 2 5 11 -29 31 -26 15
-52 27 -58 27 -7 0 -9 8 -5 21 5 14 3 19 -3 15 -6 -3 -13 -2 -17 4 -7 11 -28
13 -38 3z"/>
<path d="M915 1435 c-71 -62 -26 -52 54 12 3 2 0 8 -5 13 -5 5 -24 -4 -49 -25z"/>
<path d="M4046 1439 c12 -12 28 -19 35 -17 8 3 -1 12 -21 22 l-35 17 21 -22z"/>
<path d="M1140 1323 c0 -5 9 -18 20 -28 16 -14 23 -16 32 -7 9 9 9 12 -2 12
-7 0 -22 7 -32 17 -10 9 -18 12 -18 6z"/>
<path d="M1250 1205 c-7 -8 -8 -15 -2 -15 5 0 15 7 22 15 7 8 8 15 2 15 -5 0
-15 -7 -22 -15z"/>
<path d="M3818 1196 c-10 -7 -18 -20 -18 -28 0 -21 -36 -52 -45 -39 -3 6 -11
11 -18 11 -7 0 -5 -6 4 -15 18 -19 45 -11 60 17 10 18 12 18 28 4 15 -14 20
-14 36 -2 17 12 18 18 7 40 -13 29 -28 32 -54 12z m32 -21 c7 -8 8 -15 2 -15
-5 0 -15 7 -22 15 -7 8 -8 15 -2 15 5 0 15 -7 22 -15z"/>
<path d="M3957 1175 c-4 -8 -18 -20 -32 -27 -31 -14 -32 -34 -4 -64 20 -21 24
-22 50 -9 15 8 31 24 34 36 8 23 8 22 -20 37 -18 10 -18 11 -2 12 10 0 17 6
15 13 -7 18 -35 20 -41 2z m20 -51 c5 -15 -11 -33 -30 -34 -15 0 -20 32 -6 41
20 13 29 11 36 -7z"/>
<path d="M1360 1120 c0 -5 7 -10 16 -10 8 0 12 5 9 10 -3 6 -10 10 -16 10 -5
0 -9 -4 -9 -10z"/>
<path d="M3809 1101 c-62 -48 -182 -131 -191 -131 -5 0 -14 14 -19 30 -14 38
-35 38 -79 0 -19 -16 -43 -29 -52 -30 -10 0 -18 -2 -18 -5 0 -7 52 -85 56 -85
2 0 25 14 51 30 l47 30 25 -40 c25 -38 41 -50 41 -31 0 4 -10 23 -23 42 l-23
34 66 45 c106 74 159 115 160 123 0 12 -16 8 -41 -12z m-223 -116 c6 -24 0
-44 -10 -34 -11 11 -17 59 -7 59 6 0 13 -11 17 -25z m-33 -36 c6 -4 5 -9 -1
-13 -13 -8 -45 30 -37 45 6 8 11 6 18 -7 6 -11 15 -22 20 -25z m-31 -33 c-3
-5 -11 -1 -19 9 -19 27 -16 38 5 18 11 -10 17 -22 14 -27z"/>
<path d="M3642 1060 c7 -11 16 -20 21 -20 4 0 3 9 -3 20 -6 11 -15 20 -20 20
-6 0 -5 -9 2 -20z"/>
<path d="M1540 1020 c-8 -5 -12 -12 -9 -15 4 -3 12 1 19 10 14 17 11 19 -10 5z"/>
<path d="M1590 970 c0 -5 5 -10 11 -10 5 0 7 5 4 10 -3 6 -8 10 -11 10 -2 0
-4 -4 -4 -10z"/>
<path d="M1715 910 c9 -14 65 -42 65 -32 0 5 -16 16 -36 25 -19 10 -33 13 -29
7z"/>
<path d="M3326 875 c19 -30 26 -28 17 3 -3 12 -12 22 -19 22 -12 0 -11 -5 2
-25z"/>
<path d="M3370 844 c-102 -47 -262 -101 -400 -134 -114 -27 -120 -26 -120 9 0
17 -5 33 -12 37 -8 5 -10 -4 -6 -33 l6 -41 -52 -6 c-28 -3 -84 -8 -123 -12
-71 -6 -103 -24 -44 -24 58 0 274 32 366 54 63 15 95 19 95 12 0 -6 9 -29 20
-51 l20 -40 -5 35 c-2 19 -6 43 -7 53 -3 15 17 26 107 59 61 22 118 42 127 45
14 4 23 -6 39 -43 26 -57 39 -37 14 22 -8 20 -14 38 -13 39 2 1 22 12 46 25
23 13 42 27 42 32 0 4 -1 8 -2 7 -2 0 -46 -21 -98 -45z"/>
<path d="M1815 860 c3 -5 8 -10 11 -10 2 0 4 5 4 10 0 6 -5 10 -11 10 -5 0 -7
-4 -4 -10z"/>
<path d="M3250 860 c0 -5 7 -7 15 -4 8 4 15 8 15 10 0 2 -7 4 -15 4 -8 0 -15
-4 -15 -10z"/>
<path d="M1850 849 c0 -5 5 -7 10 -4 6 3 10 8 10 11 0 2 -4 4 -10 4 -5 0 -10
-5 -10 -11z"/>
<path d="M1922 829 c2 -6 8 -10 13 -10 5 0 11 4 13 10 2 6 -4 11 -13 11 -9 0
-15 -5 -13 -11z"/>
<path d="M3165 825 c-25 -12 -26 -14 -5 -9 14 4 29 10 35 15 12 12 5 11 -30
-6z"/>
<path d="M3030 790 c-60 -20 -49 -27 14 -9 35 10 42 9 53 -7 12 -16 13 -16 13
9 0 31 -5 32 -80 7z"/>
<path d="M2531 757 c0 -10 -8 -20 -17 -24 -15 -5 -15 -7 1 -15 22 -13 27 -6
22 29 -2 15 -5 20 -6 10z"/>
<path d="M2555 758 c-2 -7 -3 -22 -2 -33 2 -15 -6 -21 -33 -26 l-35 -6 31 -8
c18 -4 37 -17 42 -29 9 -17 11 -8 11 47 1 63 -4 83 -14 55z"/>
<path d="M2235 740 c-3 -5 -1 -10 4 -10 6 0 11 5 11 10 0 6 -2 10 -4 10 -3 0
-8 -4 -11 -10z"/>
<path d="M2380 720 c0 -5 5 -10 10 -10 6 0 10 5 10 10 0 6 -4 10 -10 10 -5 0
-10 -4 -10 -10z"/>
<path d="M2511 596 c-7 -8 -11 -31 -9 -52 2 -32 7 -39 31 -45 43 -11 95 0 103
23 7 23 -12 48 -37 48 -26 0 -32 -17 -9 -23 35 -9 22 -27 -20 -27 -39 0 -40 1
-40 36 l0 36 55 -4 c39 -2 55 1 55 10 0 18 -114 16 -129 -2z"/>
<path d="M3098 553 c7 -3 16 -2 19 1 4 3 -2 6 -13 5 -11 0 -14 -3 -6 -6z"/>
<path d="M3058 543 c7 -3 16 -2 19 1 4 3 -2 6 -13 5 -11 0 -14 -3 -6 -6z"/>
<path d="M3018 533 c7 -3 16 -2 19 1 4 3 -2 6 -13 5 -11 0 -14 -3 -6 -6z"/>
<path d="M2968 523 c6 -2 18 -2 25 0 6 3 1 5 -13 5 -14 0 -19 -2 -12 -5z"/>
<path d="M2918 513 c7 -3 16 -2 19 1 4 3 -2 6 -13 5 -11 0 -14 -3 -6 -6z"/>
<path d="M4773 2370 c0 -36 2 -50 4 -32 2 17 2 47 0 65 -2 17 -4 3 -4 -33z"/>
<path d="M4762 2260 c0 -19 2 -27 5 -17 2 9 2 25 0 35 -3 9 -5 1 -5 -18z"/>
<path d="M4752 2190 c0 -14 2 -19 5 -12 2 6 2 18 0 25 -3 6 -5 1 -5 -13z"/>
<path d="M4741 2124 c0 -11 3 -14 6 -6 3 7 2 16 -1 19 -3 4 -6 -2 -5 -13z"/>
<path d="M4606 1745 c-9 -26 -7 -32 5 -12 6 10 9 21 6 23 -2 3 -7 -2 -11 -11z"/>
<path d="M4567 1655 c-15 -30 -25 -55 -22 -55 7 0 57 101 53 106 -2 2 -16 -21
-31 -51z"/>
</g>
</svg>