<?xml version="1.0" encoding="UTF-8" standalone="no"?>
<svg
   width="300"
   height="300"
   viewBox="0 0 70 70"
   version="1.1"
   id="svg1"
   sodipodi:docname="ship-v1.svg"
   inkscape:version="1.4.2 (f4327f4, 2025-05-13)"
   xmlns:inkscape="http://www.inkscape.org/namespaces/inkscape"
   xmlns:sodipodi="http://sodipodi.sourceforge.net/DTD/sodipodi-0.dtd"
   xmlns="http://www.w3.org/2000/svg"
   xmlns:svg="http://www.w3.org/2000/svg">
  <defs
     id="defs1" />
  <sodipodi:namedview
     id="namedview1"
     pagecolor="#ffffff"
     bordercolor="#000000"
     borderopacity="0.25"
     inkscape:showpageshadow="2"
     inkscape:pageopacity="0.0"
     inkscape:pagecheckerboard="0"
     inkscape:deskcolor="#d1d1d1"
     inkscape:zoom="2.6433333"
     inkscape:cx="150.18916"
     inkscape:cy="134.11097"
     inkscape:window-width="1920"
     inkscape:window-height="1002"
     inkscape:window-x="-8"
     inkscape:window-y="-8"
     inkscape:window-maximized="1"
     inkscape:current-layer="g1" />
  <g
     transform="scale(-1,1) translate(-70,0)"
     id="g1">
    <path
       id="path61"
       style="stroke-width:14;stroke-dasharray:none;opacity:1;fill:#4e7fff;fill-opacity:1"
       d="M 43.334375 14.498112 L 43.339844 23.648698 L 40.245443 21.046029 C 40.570643 20.654249 41.148861 19.795621 41.884701 18.047331 C 42.452571 16.696381 43.080635 15.334652 43.215885 14.498112 L 43.334375 14.498112 z M 37.655078 14.498112 L 37.659635 23.648698 L 34.564779 21.046029 C 34.890459 20.654249 35.468231 19.795621 36.203581 18.047331 C 36.772671 16.696381 37.400917 15.334652 37.535677 14.498112 L 37.655078 14.498112 z M 31.973958 14.498112 L 31.979883 23.648698 L 28.885482 21.046029 C 29.209942 20.654249 29.787988 19.795621 30.523828 18.047331 C 31.092428 16.696381 31.720493 15.334652 31.855013 14.498112 L 31.973958 14.498112 z M 26.295573 14.498112 L 26.293294 23.679688 L 23.199805 21.046029 C 23.526955 20.654249 24.463136 19.795621 25.197266 18.047331 C 25.767826 16.696381 26.04782 15.334652 26.17526 14.498112 L 26.295573 14.498112 z M 43.69668 19.405859 C 43.87686 19.543009 44.048178 19.68085 44.223958 19.81556 L 54.567643 28.701823 C 54.567643 28.701823 52.576005 29.489497 49.597005 30.182487 C 46.615075 30.874927 44.694727 30.999154 44.694727 30.999154 C 44.694727 30.999154 45.461103 28.564002 43.980143 25.488932 L 48.463607 29.314779 C 48.941147 28.299459 48.861062 25.31599 43.692122 19.43776 L 43.69668 19.405859 z M 39.845768 21.965234 L 43.334375 24.947982 L 43.336198 31.651758 L 38.288542 30.681055 C 38.594942 29.797935 39.017542 28.65598 39.382292 27.39707 C 39.906222 25.59629 39.884828 22.930814 39.845768 21.965234 z M 34.166016 21.965234 L 37.655078 24.947982 L 37.65599 31.651758 L 32.608333 30.681055 C 32.914733 29.797935 33.336398 28.65598 33.701628 27.39707 C 34.226528 25.59629 34.204106 22.930814 34.166016 21.965234 z M 28.485807 21.965234 L 31.973958 24.947982 L 31.975781 31.651758 L 26.928125 30.681055 C 27.235005 29.797935 27.656224 28.65598 28.020964 27.39707 C 28.545134 25.59629 28.524387 22.930814 28.485807 21.965234 z M 22.80332 21.965234 L 26.295573 24.947982 L 26.295573 31.651758 L 19.332487 30.379818 C 19.838107 29.604548 22.79429 26.995444 22.80332 21.965234 z M 56.361393 29.010807 L 56.036003 29.612826 C 54.911983 30.064176 52.862991 30.842085 51.697461 31.353255 C 50.664261 31.807055 48.752539 32.396879 48.062109 33.252279 C 47.833589 33.532489 47.304688 34.779883 47.304688 34.779883 C 47.131838 35.110513 41.668151 35.517253 33.941341 35.517253 C 26.787041 35.517253 20.896531 35.153543 20.066211 34.826823 L 19.973698 34.787174 L 19.963672 34.754818 C 19.962272 34.754068 19.96047 34.753495 19.95957 34.752995 L 19.959115 34.752539 L 19.959115 34.752083 L 19.958659 34.752083 L 19.958659 34.751628 L 19.958659 34.751172 L 19.958659 34.750716 L 19.95957 34.750716 L 19.949544 34.707878 C 19.830164 34.288688 20.189258 34.009245 20.189258 34.009245 C 20.189258 34.009245 19.313581 33.729199 18.763281 33.171159 C 18.012791 32.416089 18.034115 31.905599 18.034115 31.905599 C 17.999935 31.791889 17.975658 31.672441 18.039128 31.606641 C 18.085268 31.550671 18.839366 31.761118 20.319596 31.914258 C 21.308606 32.017168 24.150715 32.355404 33.847005 32.355404 C 45.347985 32.355404 47.520087 31.538689 49.204167 31.208789 C 50.889227 30.870779 55.872623 29.173837 56.361393 29.010807 z M 50.897656 37.289128 C 50.897656 37.833558 43.871023 38.539648 35.520443 38.539648 C 27.170103 38.539648 20.142773 37.833558 20.142773 37.289128 L 50.897656 37.289128 z M 46.9 40.046745 C 46.9 40.591915 41.699153 41.29681 35.520443 41.29681 C 29.342463 41.29681 24.141797 40.591905 24.141797 40.046745 L 46.9 40.046745 z M 41.445378 42.802539 C 41.445378 43.347339 38.740893 44.052604 35.520443 44.052604 C 32.311463 44.052604 29.607357 43.347339 29.607357 42.802539 L 41.445378 42.802539 z " />
    <path
       d="m 48.50231,13.76077 c -4.26465,-0.9541 -8.86621,-1.63812 -12.67065,-1.63812 -0.07544,-0.0028 -0.69629,-0.0028 -0.77124,0 -3.62988,0 -8.52295,0.60114 -12.67212,1.63812 -5.11157,1.27917 -6.30542,4.14075 -7.72437,8.466 -1.16504,3.56177 -2.7146,7.00385 -1.4209,10.86334 1.23804,3.68701 4.3313,5.96014 7.45532,7.98907 3.14258,2.04468 13.80371,7.02484 13.80371,7.02484 0,0 0.50464,0.17603 0.92993,0.17603 0.45508,0 1.00098,-0.17603 1.00098,-0.17603 0,0 9.59424,-4.42767 13.76123,-7.02484 3.25635,-2.02893 6.21582,-4.30206 7.45068,-7.98907 1.29639,-3.8595 -0.25391,-7.30157 -1.41797,-10.86334 -1.41699,-4.32526 -2.58203,-7.31488 -7.72461,-8.466 z"
       id="path1"
       style="display:none" />
  </g>
</svg>
