<svg width="1005" height="1004" viewBox="0 0 1005 1004" fill="none" xmlns="http://www.w3.org/2000/svg">
    <rect x="0.0546875" y="0.015625" width="1003.98" height="1003.98" rx="211" fill="url(#paint0_linear_1765_440)"/>
    <g filter="url(#filter0_i_1765_440)">
        <path d="M127 867L180.835 666.83C137.418 588.853 123.625 497.861 141.984 410.551C160.344 323.241 209.626 245.469 280.787 191.506C351.948 137.544 440.215 111.01 529.39 116.775C618.564 122.54 702.666 160.216 766.262 222.89C829.858 285.564 868.681 369.032 875.609 457.977C882.537 546.922 857.104 635.378 803.977 707.114C750.851 778.849 673.594 829.052 586.383 848.509C499.173 867.967 407.859 855.375 329.198 813.043L127 867ZM338.948 738.138L351.452 745.544C408.428 779.259 474.975 793.21 540.723 785.225C606.471 777.239 667.726 747.765 714.942 701.395C762.159 655.025 792.685 594.365 801.763 528.866C810.842 463.368 797.962 396.71 765.133 339.283C732.303 281.855 681.366 236.882 620.261 211.372C559.156 185.862 491.315 181.249 427.309 198.251C363.304 215.253 306.73 252.915 266.403 305.369C226.076 357.822 204.263 422.12 204.361 488.243C204.307 543.069 219.495 596.834 248.234 643.554L256.076 656.462L225.98 768.184L338.948 738.138Z" fill="white"/>
        <path fill-rule="evenodd" clip-rule="evenodd" d="M642.449 539.641C635.119 533.738 626.535 529.583 617.353 527.493C608.171 525.403 598.632 525.433 589.462 527.58C575.686 533.293 566.784 554.876 557.882 565.667C556.005 568.254 553.247 570.068 550.125 570.77C547.003 571.471 543.733 571.011 540.926 569.476C490.49 549.754 448.214 513.588 420.964 466.852C418.64 463.935 417.54 460.232 417.896 456.522C418.252 452.812 420.035 449.385 422.872 446.962C432.8 437.149 440.09 424.996 444.066 411.625C444.949 396.877 441.565 382.187 434.317 369.306C428.713 351.247 418.049 335.167 403.584 322.966C396.124 319.616 387.852 318.493 379.766 319.732C371.68 320.971 364.126 324.519 358.016 329.949C347.407 339.086 338.987 350.483 333.374 363.3C327.762 376.117 325.101 390.028 325.588 404.008C325.62 411.858 326.617 419.675 328.555 427.283C333.477 445.563 341.045 463.028 351.021 479.124C358.219 491.454 366.072 503.391 374.548 514.884C402.091 552.632 436.714 584.683 476.494 609.256C496.457 621.743 517.792 631.896 540.079 639.514C563.23 649.991 588.792 654.013 614.048 651.152C628.439 648.977 642.073 643.305 653.752 634.634C665.431 625.963 674.796 614.56 681.024 601.427C684.683 593.493 685.793 584.624 684.203 576.035C680.388 558.473 656.862 548.105 642.449 539.641Z" fill="white"/>
    </g>
    <defs>
        <filter id="filter0_i_1765_440" x="127" y="116" width="751" height="751.5" filterUnits="userSpaceOnUse" color-interpolation-filters="sRGB">
            <feFlood flood-opacity="0" result="BackgroundImageFix"/>
            <feBlend mode="normal" in="SourceGraphic" in2="BackgroundImageFix" result="shape"/>
            <feColorMatrix in="SourceAlpha" type="matrix" values="0 0 0 0 0 0 0 0 0 0 0 0 0 0 0 0 0 0 127 0" result="hardAlpha"/>
            <feOffset dy="0.5"/>
            <feGaussianBlur stdDeviation="1.25"/>
            <feComposite in2="hardAlpha" operator="arithmetic" k2="-1" k3="1"/>
            <feColorMatrix type="matrix" values="0 0 0 0 0 0 0 0 0 0 0 0 0 0 0 0 0 0 0.1 0"/>
            <feBlend mode="normal" in2="shape" result="effect1_innerShadow_1765_440"/>
        </filter>
        <linearGradient id="paint0_linear_1765_440" x1="571.435" y1="1033.94" x2="570" y2="-5.49167e-05" gradientUnits="userSpaceOnUse">
            <stop stop-color="#2BB927"/>
            <stop offset="1" stop-color="#60FC7C"/>
        </linearGradient>
    </defs>
</svg>
